<svg width="48" height="11" viewBox="0 0 48 11" fill="none" xmlns="http://www.w3.org/2000/svg"><path d="M.58 5.45h8.17v1.04H.58V5.45Zm21.8.17h3.9v1.03h-3.9V5.62Zm-6.4-1.98-.76-1.47h-.06l.17 1.42V10h-1.12V.05h.62l4.42 6.48.72 1.4h.07l-.16-1.35V.2H21v9.95h-.64l-4.38-6.5Zm6.14-1.23c0-.42.06-.78.17-1.08.11-.3.26-.54.45-.74.2-.2.42-.33.68-.42a2.78 2.78 0 0 1 1.72-.01c.28.08.5.22.7.4.19.2.34.44.45.75.12.3.17.66.17 1.1 0 .44-.05.81-.17 1.12-.1.3-.26.54-.46.73-.19.19-.41.32-.68.4a2.91 2.91 0 0 1-1.72 0 1.76 1.76 0 0 1-.7-.4 2 2 0 0 1-.44-.73 3.3 3.3 0 0 1-.17-1.12Zm1.04 0c0 .56.1.96.3 1.2.2.25.48.37.83.37.18 0 .34-.02.48-.07a.87.87 0 0 0 .35-.25c.1-.12.17-.28.22-.48.06-.2.09-.46.09-.77 0-.3-.03-.56-.09-.75-.05-.2-.12-.37-.22-.48a.72.72 0 0 0-.35-.25c-.14-.06-.3-.09-.48-.09-.35 0-.63.12-.84.34-.2.21-.3.63-.3 1.23Zm7.47 6.78c.31 0 .6-.05.88-.14a2 2 0 0 0 .7-.4 2.05 2.05 0 0 0 .63-1.5c0-.65-.2-1.13-.59-1.45a2.43 2.43 0 0 0-1.6-.47h-1.03v-.41l2.01-3.1.65-.62-.91.14H28.6V.2h5v.4l-2.23 3.35-.5.4v.04l.48-.1c.38 0 .72.08 1.04.2a2.44 2.44 0 0 1 1.37 1.4c.13.33.2.7.2 1.13 0 .5-.1.95-.27 1.34a2.89 2.89 0 0 1-1.79 1.6 4 4 0 0 1-1.3.2 5.97 5.97 0 0 1-2.02-.34l.3-1c.21.1.46.2.75.27.3.07.63.1 1 .1Zm8.61-3.74h8.18v1.04h-8.18V5.45Z" fill="#333"/></svg>