<svg width="48" height="11" viewBox="0 0 48 11" fill="none" xmlns="http://www.w3.org/2000/svg"><path d="M.58 5.45h8.17v1.04H.58V5.45Zm21.8.17h3.9v1.03h-3.9V5.62Zm-6.4-1.98-.76-1.47h-.06l.17 1.42V10h-1.12V.05h.62l4.42 6.48.72 1.4h.07l-.16-1.35V.2H21v9.95h-.64l-4.38-6.5Zm6.14-1.23c0-.42.06-.78.17-1.08.11-.3.26-.54.45-.74.2-.2.42-.33.68-.42a2.78 2.78 0 0 1 1.72-.01c.28.08.5.22.7.4.19.2.34.44.45.75.12.3.17.66.17 1.1 0 .44-.05.81-.17 1.12-.1.3-.26.54-.46.73-.19.19-.41.32-.68.4a2.91 2.91 0 0 1-1.72 0 1.76 1.76 0 0 1-.7-.4 2 2 0 0 1-.44-.73 3.3 3.3 0 0 1-.17-1.12Zm1.04 0c0 .56.1.96.3 1.2.2.25.48.37.83.37.18 0 .34-.02.48-.07a.87.87 0 0 0 .35-.25c.1-.12.17-.28.22-.48.06-.2.09-.46.09-.77 0-.3-.03-.56-.09-.75-.05-.2-.12-.37-.22-.48a.72.72 0 0 0-.35-.25c-.14-.06-.3-.09-.48-.09-.35 0-.63.12-.84.34-.2.21-.3.63-.3 1.23Zm10.43.02c0 .5-.09 1-.28 1.52a9.18 9.18 0 0 1-.71 1.56c-.29.52-.62 1.03-.98 1.54-.36.5-.73.96-1.1 1.41l-.68.6v.06l.9-.16h3.05V10h-5.57v-.4a46.79 46.79 0 0 0 1.64-1.85 21.21 21.21 0 0 0 1.75-2.57c.25-.44.45-.89.6-1.33.15-.43.22-.85.22-1.24 0-.46-.13-.84-.39-1.14-.26-.3-.66-.46-1.19-.46-.36 0-.7.08-1.04.23-.33.14-.62.3-.86.49l-.47-.8c.33-.28.72-.5 1.17-.66.44-.16.92-.24 1.44-.24.4 0 .75.06 1.06.18a2.11 2.11 0 0 1 1.28 1.26c.1.3.16.61.16.96Zm5.65 3.02h8.18v1.04h-8.18V5.45Z" fill="#fff"/></svg>